HIERARCHY
ROOT Hip
{
	OFFSET 0 0 0
	CHANNELS 6 Xposition Yposition Zposition Zrotation Yrotation Xrotation
	JOINT ShoulderCenter
	{
		OFFSET 0 0.4363 0
		CHANNELS 3 Zrotation Yrotation Xrotation
		JOINT Head
		{
			OFFSET 0 0.1849 0
			CHANNELS 3 Zrotation Yrotation Xrotation
			End Site
			{
				OFFSET 0.0 0.0891 0.0
			}
		}
		JOINT ShoulderLeft
		{
			OFFSET -0.14 0 0
			CHANNELS 3 Zrotation Yrotation Xrotation
			JOINT ElbowLeft
			{
				OFFSET -0.25 0 0
				CHANNELS 3 Zrotation Yrotation Xrotation
				JOINT WristLeft
				{
					OFFSET -0.23 0 0
					CHANNELS 3 Zrotation Yrotation Xrotation
					End Site
					{
						OFFSET -0.0832 0.0 0.0
					}
				}
			}
		}
		JOINT ShoulderRight
		{
			OFFSET 0.14 0 0
			CHANNELS 3 Zrotation Yrotation Xrotation
			JOINT ElbowRight
			{
				OFFSET 0.25 0 0
				CHANNELS 3 Zrotation Yrotation Xrotation
				JOINT WristRight
				{
					OFFSET 0.23 0 0
					CHANNELS 3 Zrotation Yrotation Xrotation
					End Site
					{
						OFFSET 0.0832 0.0 0.0
					}
				}
			}
		}
	}
	JOINT HipLeft
	{
		OFFSET -0.0952 0 0
		CHANNELS 3 Zrotation Yrotation Xrotation
		JOINT KneeLeft
		{
			OFFSET 0 -0.3732 0
			CHANNELS 3 Zrotation Yrotation Xrotation
			JOINT AnkleLeft
			{
				OFFSET 0 -0.346 0
				CHANNELS 3 Zrotation Yrotation Xrotation
				End Site
				{
					OFFSET 0.0 0.0 0.0891
				}
			}
		}
	}
	JOINT HipRight
	{
		OFFSET 0.0952 0 0
		CHANNELS 3 Zrotation Yrotation Xrotation
		JOINT KneeRight
		{
			OFFSET 0 -0.3732 0
			CHANNELS 3 Zrotation Yrotation Xrotation
			JOINT AnkleRight
			{
				OFFSET 0 -0.346 0
				CHANNELS 3 Zrotation Yrotation Xrotation
				End Site
				{
					OFFSET 0.0 0.0 0.0891
				}
			}
		}
	}
}
MOTION
Frames: 22
Frame Time: 0.033333
0.000188382 -5.87823e-05 -0.00247787 1.36982 0.342798 -5.81538 -4.67648 -1.6577 -0.388318 0 0 0 0 0 0 0 0 0 0 0 0 0 0 0 0 0 0 0 0 0 1.85703 0.679146 5.18522 -3.28411 0.149666 -32.6772 0 0 0 -7.71073 2.15716 4.86187 -1.06153 -6.33892 -33.3398 0 0 0 
0.000188539 -5.87823e-05 -0.00247786 1.32217 0.337843 -5.80425 -4.59756 -1.67167 -0.372747 0 0 0 0 0 0 0 0 0 0 0 0 0 0 0 0 0 0 0 0 0 1.92325 0.761713 5.17401 -3.49952 0.0136117 -32.4621 0 0 0 -7.64659 2.16072 4.8493 -1.09894 -6.33513 -33.2955 0 0 0 
0.000188563 -5.87671e-05 -0.00247783 1.26486 0.334146 -5.77641 -4.56278 -1.77913 -0.445545 0 0 0 0 0 0 0 0 0 0 0 0 0 0 0 0 0 0 0 0 0 2.09343 0.903809 5.14627 -3.91614 -0.149319 -32.4045 0 0 0 -7.54601 2.15786 4.84169 -1.15456 -6.29463 -33.2484 0 0 0 
0.000188762 -5.8711e-05 -0.00247783 1.28081 0.325965 -5.77727 -4.59383 -1.83847 -0.445154 2.13443e-07 0 0 0 0 0 0 0 0 0 0 0 0 0 0 0 0 0 0 0 0 2.05454 0.895234 5.14405 -3.88274 -0.14785 -32.3874 0 0 0 -7.48132 2.08166 4.85692 -0.984072 -6.14723 -33.37 0 0 0 
0.000188773 -5.87096e-05 -0.00247783 1.27885 0.324405 -5.77747 -4.6303 -1.84563 -0.444601 0 0 0 0 0 0 0 0 0 0 0 0 0 0 0 0 0 0 0 0 0 2.07402 0.906464 5.15439 -3.92145 -0.158331 -32.3848 0 0 0 -7.45592 2.09198 4.85775 -1.03343 -6.14915 -33.3349 0 0 0 
0.000189153 -5.86328e-05 -0.00247782 1.25445 0.284008 -5.78519 -4.49549 -1.82977 -0.429756 0 0 3.33505e-09 0 0 0 0 0 0 0 0 0 0 0 0 0 0 0 0 0 0 2.71936 1.36307 5.16187 -5.30188 -0.591978 -32.5219 0 0 0 -7.41684 1.94861 4.87356 -0.980532 -5.85606 -32.5429 0 0 0 
0.000189183 -5.85166e-05 -0.00247782 1.25299 0.21091 -5.7873 -4.5168 -1.82504 -0.43245 2.13443e-07 2.13443e-07 -3.33505e-09 0 0 0 0 0 0 0 0 0 0 0 0 0 0 0 0 0 0 2.70639 1.19734 5.23117 -5.07286 -0.643775 -30.3446 0 0 0 -7.36755 2.03382 4.8829 -1.0762 -6.06285 -32.554 0 0 0 
0.000189539 -5.84744e-05 -0.00247782 1.25666 0.178761 -5.7879 -4.48012 -1.80818 -0.448071 0 0 0 0 0 0 0 0 0 0 0 0 0 0 0 0 0 0 0 0 0 2.66661 1.30675 5.23251 -5.34425 -0.823431 -30.3253 0 0 0 -7.34247 2.35478 4.89124 -1.67182 -6.58428 -32.9486 -5.33608e-08 2.13443e-07 3.41509e-06 
0.000189969 -5.84675e-05 -0.00247768 1.26333 0.0627554 -5.80076 -4.38497 -1.71893 -0.458627 0 0 0 0 0 0 0 0 0 0 0 0 0 0 0 0 0 0 0 0 0 2.62192 1.44444 5.24891 -5.62038 -1.02476 -30.6388 0 2.66804e-08 0 -7.34811 2.28136 4.93467 -1.63427 -6.43317 -32.5853 0 0 0 
0.000190298 -5.84675e-05 -0.00247759 1.23317 -0.0371498 -5.81008 -4.24973 -1.65223 -0.461497 0 0 0 0 0 0 0 0 0 0 0 0 0 0 0 0 0 0 0 0 0 2.63319 1.51902 5.24388 -5.82189 -1.15882 -30.4874 0 0 0 -7.14295 2.25654 4.93215 -2.2417 -6.20075 -31.0913 0 0 0 
0.000190666 -5.83885e-05 -0.00247734 1.25072 -0.244006 -5.8426 -4.17455 -1.50423 -0.460575 0 0 0 0 0 0 0 0 0 0 0 0 0 0 0 0 0 0 0 0 0 2.58126 1.45964 5.2139 -5.65976 -1.08935 -30.4083 0 0 0 -7.21259 2.26757 5.00893 -2.12305 -6.24932 -31.3265 0 0 3.41509e-06 
0.000190719 -5.83812e-05 -0.00247732 1.24797 -0.304609 -5.84508 -4.13917 -1.46754 -0.47085 0 0 0 0 0 0 0 0 0 0 0 0 0 0 0 0 0 0 0 0 0 2.56689 1.51049 5.19465 -5.74548 -1.16389 -30.5453 1.33402e-08 -3.97569e-16 3.41509e-06 -7.22986 1.99261 5.02651 -1.83379 -5.71911 -30.1791 6.36111e-15 2.13443e-07 3.41509e-06 
0.00019093 -5.83082e-05 -0.00247714 1.28051 -0.432731 -5.86937 -4.18214 -1.36953 -0.515711 0 0 -3.33505e-09 0 0 0 0 0 0 0 0 0 0 0 0 0 0 0 0 0 0 2.52461 1.47499 5.14681 -5.67676 -1.11448 -30.4132 1.33402e-08 9.70628e-20 -8.33763e-10 -7.2646 1.77402 4.99832 -2.21997 -5.10552 -27.2828 0 0 0 
0.000190992 -5.8303e-05 -0.00247711 1.29074 -0.446658 -5.8754 -4.19217 -1.37063 -0.511191 0 0 0 0 0 0 0 0 0 0 0 0 0 0 0 0 0 0 0 0 0 2.47994 1.53703 5.14846 -5.81533 -1.22519 -30.3988 0 0 0 -7.29676 1.50876 4.99704 -1.41796 -4.65553 -27.1975 0 0 0 
0.000191039 -5.8303e-05 -0.00247711 1.31007 -0.569347 -5.87538 -4.19667 -1.26166 -0.548372 0 0 0 0 0 0 0 0 0 0 0 0 0 0 0 0 0 0 0 0 0 2.45926 1.51284 5.15325 -5.75029 -1.18718 -30.4229 2.13443e-07 0 0 -7.06254 1.82136 5.00331 -2.5047 -5.1032 -27.2101 0 0 0 
0.000191046 -5.83082e-05 -0.00247708 1.31938 -0.62004 -5.88332 -4.20398 -1.20869 -0.548186 -2.13443e-07 2.13443e-07 -3.33505e-09 0 0 0 0 0 0 0 0 0 0 0 0 0 0 0 0 0 0 2.58236 1.65425 5.15806 -6.06905 -1.30045 -30.9662 0 0 0 -7.05135 1.96903 5.00839 -1.9855 -5.56855 -29.9848 2.48481e-17 2.13443e-07 1.33402e-08 
0.000191074 -5.83728e-05 -0.00247707 1.33583 -0.673928 -5.89947 -4.22131 -1.15411 -0.617557 2.26784e-07 2.13443e-07 -3.33505e-09 0 0 0 0 0 0 0 0 0 0 0 0 0 0 0 0 0 0 2.54822 1.54253 5.15994 -5.78168 -1.14202 -30.978 2.13443e-07 0 0 -6.98032 1.90023 5.02344 -1.8512 -5.42183 -29.959 0 0 0 
0.00019111 -5.85176e-05 -0.00247707 1.34189 -0.686416 -5.89781 -4.21947 -1.15682 -0.621095 0 0 0 0 0 0 0 0 0 0 0 0 0 0 0 0 0 0 0 0 0 2.53239 1.57607 5.1563 -5.75876 -1.1146 -31.6784 0 0 0 -6.98119 1.99904 5.02534 -2.06604 -5.58167 -30.1524 0 0 0 
0.000191124 -5.85176e-05 -0.00247706 1.3466 -0.711126 -5.90007 -4.19823 -1.11031 -0.657601 0 0 0 0 0 0 0 0 0 0 0 0 0 0 0 0 0 0 0 0 0 2.41258 1.49285 5.15392 -5.19585 -0.845684 -33.7566 0 2.66804e-08 0 -6.98072 1.98672 5.03316 -1.99502 -5.57177 -30.2405 0 0 0 
0.000191133 -5.85176e-05 -0.00247705 1.35812 -0.721962 -5.90277 -4.17025 -1.08248 -0.670343 0 0 0 0 0 0 0 0 0 0 0 0 0 0 0 0 0 0 0 0 0 2.38983 1.43109 5.15719 -5.04817 -0.764602 -33.7689 0 0 0 -6.99592 1.98745 5.0443 -1.97455 -5.5802 -30.2674 0 0 0 
0.000191174 -5.85015e-05 -0.00247695 1.37951 -0.869285 -5.92171 -4.13406 -0.933952 -0.673341 0 0 0 0 0 0 0 0 0 0 0 0 0 0 0 0 0 0 0 0 0 2.34957 1.39685 5.17279 -4.86299 -0.808332 -33.7429 0 0 0 -7.06828 1.93848 5.08959 -1.70387 -5.58286 -30.2802 0 0 0 
0.00019119 -5.84943e-05 -0.00247695 1.40008 -0.869053 -5.93056 -4.0821 -0.841366 -0.705633 1.33402e-08 2.13443e-07 2.48481e-17 0 0 0 0 0 0 0 0 0 0 0 0 0 0 0 0 0 0 2.28622 1.26559 5.18264 -4.74921 -0.784437 -32.0479 0 0 0 -7.09971 1.93895 5.10328 -1.70852 -5.58518 -30.2202 0 0 0 
